<?xml version="1.0" encoding="iso-8859-1"?>
<!-- Generator: Adobe Illustrator 19.0.0, SVG Export Plug-In . SVG Version: 6.00 Build 0)  -->
<svg version="1.1" id="Capa_1" xmlns="http://www.w3.org/2000/svg" xmlns:xlink="http://www.w3.org/1999/xlink" x="0px" y="0px"
	 viewBox="0 0 512 512" style="enable-background:new 0 0 512 512;" xml:space="preserve">
<path style="fill:#083c66;" d="M8.258,123.87h379.871c4.561,0,8.258,3.697,8.258,8.258v189.935H8.258
	c-4.561,0-8.258-3.697-8.258-8.258V132.128C0,127.567,3.697,123.87,8.258,123.87z"/>
<path style="fill:#7DA5D7;" d="M396.387,322.065H8.258c-4.561,0-8.258-3.697-8.258-8.258v-24.774h396.387V322.065z"/>
<path style="fill:#FFD164;" d="M507.162,259.419l-11.678-11.678l-19.269-57.806h2.753c4.561,0,8.258-3.698,8.258-8.258
	c0-4.561-3.697-8.258-8.258-8.258h-74.323c-4.561,0-8.258,3.697-8.258,8.258v140.387h33.032v24.774l74.323,0.004
	c4.561,0,8.258-3.697,8.258-8.258v-67.485C512,266.719,510.26,262.518,507.162,259.419z"/>
<path style="fill:#DBD9DC;" d="M507.162,259.419l-11.678-11.678l-19.269-57.806h2.753c4.561,0,8.258-3.698,8.258-8.258
	c0-4.561-3.697-8.258-8.258-8.258h-74.323c-4.561,0-8.258,3.697-8.258,8.258v165.161l107.355,0.004c4.561,0,8.258-3.697,8.258-8.258
	V271.1C512,266.719,510.26,262.518,507.162,259.419z"/>
<g>
	<path style="fill:#C9C6CA;" d="M396.387,346.839h107.355c4.561,0,8.258-3.697,8.258-8.258v-16.516H396.387V346.839z"/>
	<path style="fill:#C9C6CA;" d="M412.903,198.193v41.29c0,4.561,3.697,8.258,8.258,8.258h74.323l-19.269-57.806h-55.054
		C416.6,189.934,412.903,193.632,412.903,198.193z"/>
</g>
<path style="fill:#5D5360;" d="M429.419,214.71v24.774c0,4.561,3.697,8.258,8.258,8.258h57.806l-13.763-41.29h-44.043
	C433.117,206.451,429.419,210.148,429.419,214.71z"/>
<path style="fill:#4B3F4E;" d="M481.721,206.451h-44.043c-4.561,0-8.258,3.697-8.258,8.258v8.258h57.806L481.721,206.451z"/>
<path style="fill:#6F6571;" d="M429.419,355.096H33.032c-4.561,0-8.258-3.697-8.258-8.258v-24.774h404.645V355.096z"/>
<circle style="fill:#4B3F4E;" cx="429.42" cy="355.099" r="33.03"/>
<circle style="fill:#6F6571;" cx="429.42" cy="355.099" r="16.516"/>
<circle style="fill:#4B3F4E;" cx="156.9" cy="355.099" r="33.03"/>
<circle style="fill:#6F6571;" cx="156.9" cy="355.099" r="16.516"/>
<circle style="fill:#4B3F4E;" cx="90.84" cy="355.099" r="33.03"/>
<circle style="fill:#6F6571;" cx="90.84" cy="355.099" r="16.516"/>
<path style="fill:#FAEBC8;" d="M512,305.547h-16.516c-4.561,0-8.258-3.697-8.258-8.258v-8.258c0-4.561,3.697-8.258,8.258-8.258H512
	V305.547z"/>
<g>
</g>
<g>
</g>
<g>
</g>
<g>
</g>
<g>
</g>
<g>
</g>
<g>
</g>
<g>
</g>
<g>
</g>
<g>
</g>
<g>
</g>
<g>
</g>
<g>
</g>
<g>
</g>
<g>
</g>
</svg>
